<?xml version="1.0" standalone="no"?>
<!DOCTYPE svg PUBLIC "-//W3C//DTD SVG 20010904//EN"
 "http://www.w3.org/TR/2001/REC-SVG-20010904/DTD/svg10.dtd">
<svg version="1.0" xmlns="http://www.w3.org/2000/svg"
 width="820.000000pt" height="820.000000pt" viewBox="0 0 820.000000 820.000000"
 preserveAspectRatio="xMidYMid meet">

<g transform="translate(0.000000,820.000000) scale(0.100000,-0.100000)"
fill="#000000" stroke="none">
<path d="M3795 7503 c-699 -68 -1352 -339 -1887 -784 -111 -93 -334 -314 -420
-419 -343 -413 -581 -882 -703 -1382 -42 -173 -58 -268 -80 -458 -24 -201 -16
-643 14 -842 94 -627 323 -1154 720 -1658 99 -126 400 -426 531 -529 514 -407
1110 -652 1760 -726 157 -17 537 -20 691 -5 581 59 1104 245 1577 561 708 474
1225 1213 1418 2025 l29 121 98 6 c177 11 327 78 452 202 82 82 135 169 172
280 22 69 26 98 26 205 0 109 -3 135 -26 205 -37 111 -90 198 -172 280 -125
124 -274 191 -455 202 l-96 6 -18 81 c-63 282 -185 602 -331 868 -82 149 -249
396 -355 523 -581 701 -1383 1134 -2280 1230 -124 14 -554 18 -665 8z m650
-198 c622 -73 1156 -290 1645 -669 130 -101 366 -329 476 -460 327 -389 565
-867 678 -1359 l6 -27 -371 2 -371 3 -43 120 c-61 174 -80 217 -147 345 -356
676 -985 1145 -1733 1295 -66 13 -147 26 -180 30 -144 14 -142 14 -148 44 -11
55 -27 61 -158 61 -106 0 -121 -2 -139 -20 -11 -11 -20 -31 -20 -44 0 -27 0
-27 -145 -41 -88 -9 -286 -50 -400 -83 -870 -252 -1541 -971 -1739 -1862 -14
-63 -28 -139 -32 -167 l-7 -53 2979 -2 c2867 -3 2981 -4 3026 -21 61 -24 141
-95 167 -150 65 -134 37 -285 -71 -382 -92 -83 -55 -79 -827 -85 l-684 -5 -22
-110 c-205 -985 -1078 -1695 -2085 -1695 -848 0 -1619 507 -1955 1285 -116
269 -163 489 -172 808 l-6 197 -185 0 -185 0 6 -222 c5 -235 21 -358 72 -557
177 -700 661 -1299 1308 -1620 363 -179 711 -261 1117 -261 282 0 515 36 770
120 584 191 1062 570 1375 1090 105 175 144 260 220 475 l43 120 371 3 371 2
-6 -27 c-92 -401 -282 -825 -518 -1153 -106 -148 -170 -224 -311 -369 -543
-561 -1228 -890 -2018 -971 -177 -18 -584 -8 -762 19 -344 54 -645 146 -940
291 -364 179 -627 370 -910 661 -518 534 -818 1186 -895 1942 -18 177 -8 584
19 762 95 616 341 1158 737 1625 80 94 296 309 389 387 477 399 1075 653 1710
728 158 18 541 18 700 0z m-127 -1086 c616 -66 1159 -383 1519 -887 106 -148
242 -410 268 -514 l7 -28 -2015 0 -2016 0 23 58 c121 306 275 543 495 762 342
340 800 559 1272 609 121 12 334 13 447 0z"/>
<path d="M4067 7164 c-4 -4 -7 -20 -7 -36 0 -15 -4 -28 -10 -28 -5 0 -10 -13
-10 -30 0 -16 5 -30 10 -30 6 0 10 -43 10 -107 0 -60 4 -114 9 -121 4 -8 27
-16 50 -19 41 -6 41 -5 41 26 0 17 -4 31 -10 31 -6 0 -10 38 -10 95 0 57 4 95
10 95 6 0 10 14 10 30 0 17 -4 30 -9 30 -6 0 -11 15 -13 33 -3 28 -7 32 -33
35 -17 2 -34 0 -38 -4z"/>
<path d="M4348 7160 c-9 -6 -19 -24 -23 -40 -4 -17 -11 -30 -16 -30 -12 0 -12
-43 0 -55 6 -6 6 -43 1 -90 -5 -44 -9 -97 -9 -117 -1 -38 -1 -38 38 -38 l39 0
7 111 c5 71 12 115 21 124 16 16 19 55 4 55 -16 0 -12 27 5 34 23 9 18 43 -7
50 -31 8 -40 7 -60 -4z"/>
<path d="M3853 7088 c-37 -18 -45 -54 -35 -163 11 -118 24 -135 104 -135 72 0
98 29 97 107 -1 104 -14 165 -39 185 -25 20 -91 23 -127 6z m79 -89 c3 -24 7
-70 7 -102 1 -51 -1 -58 -16 -55 -15 3 -19 19 -26 92 -4 49 -5 96 -2 103 10
27 30 6 37 -38z"/>
<path d="M3660 7058 c-11 -12 -20 -16 -20 -10 0 13 -66 17 -73 4 -3 -4 4 -71
16 -150 l21 -142 33 0 c19 0 36 6 39 13 2 7 -2 60 -11 117 -11 71 -12 107 -5
114 19 19 31 -9 46 -110 8 -54 16 -104 18 -110 7 -17 76 -4 76 15 -1 50 -39
253 -50 266 -18 22 -66 19 -90 -7z"/>
<path d="M4495 7071 c-35 -15 -44 -34 -61 -139 -16 -95 -16 -103 0 -127 33
-50 120 -62 160 -22 18 18 26 43 36 109 15 107 11 137 -20 159 -30 22 -87 32
-115 20z m65 -83 c0 -50 -20 -162 -31 -172 -6 -6 -13 -6 -20 1 -10 10 1 130
17 186 9 31 34 20 34 -15z"/>
<path d="M4696 7023 c-15 -55 -59 -273 -55 -278 3 -2 20 -6 39 -7 l33 -3 19
84 c21 94 30 111 63 111 19 0 24 7 29 41 4 23 4 44 1 47 -3 3 -18 -4 -34 -15
l-28 -21 4 22 c4 18 -1 25 -19 29 -36 10 -46 8 -52 -10z"/>
<path d="M3080 7009 c-33 -14 -33 -12 -16 -54 21 -50 21 -52 -17 -47 -39 4
-67 -17 -67 -51 0 -30 68 -208 87 -229 24 -27 69 -23 89 8 10 15 20 21 24 14
8 -13 70 7 70 23 0 25 -125 347 -135 346 -5 0 -21 -5 -35 -10z m42 -210 c30
-72 35 -119 14 -119 -15 0 -80 166 -70 182 12 19 30 -1 56 -63z"/>
<path d="M3265 6988 c-51 -28 -56 -62 -24 -177 28 -102 49 -124 112 -118 60 5
97 37 97 82 0 48 -47 198 -66 212 -22 16 -92 16 -119 1z m60 -48 c3 -6 17 -49
31 -97 20 -69 23 -88 12 -94 -7 -5 -16 -5 -20 -1 -13 13 -59 182 -53 192 8 13
22 13 30 0z"/>
<path d="M4871 6981 c-21 -21 -75 -180 -69 -208 2 -9 15 -25 30 -36 23 -17 31
-19 53 -9 25 11 26 11 20 -10 -4 -13 -13 -30 -21 -38 -12 -12 -15 -12 -26 3
-17 21 -65 39 -73 27 -9 -15 13 -49 43 -63 69 -35 122 -27 141 22 16 39 81
254 81 268 0 16 -64 37 -69 22 -2 -8 -10 -4 -20 9 -25 32 -65 38 -90 13z m82
-65 c7 -18 -21 -117 -39 -136 -28 -29 -34 3 -14 69 11 35 23 67 26 72 8 13 21
11 27 -5z"/>
<path d="M5096 6892 c-18 -21 -86 -183 -86 -207 0 -8 13 -29 28 -46 23 -25 38
-33 78 -36 46 -5 53 -3 73 23 28 35 24 56 -13 69 -25 8 -31 7 -44 -13 -15 -23
-42 -30 -42 -10 0 19 23 78 31 78 4 0 29 -9 55 -20 26 -12 50 -17 54 -13 19
22 39 105 30 128 -21 56 -128 86 -164 47z m94 -59 c0 -28 -15 -44 -33 -37 -18
7 -20 14 -11 38 8 22 44 21 44 -1z"/>
<path d="M5350 6866 c-5 -14 -16 -26 -24 -26 -16 0 -31 -34 -22 -49 3 -5 -15
-55 -41 -111 -51 -110 -51 -121 1 -150 25 -14 28 -13 42 4 8 11 11 28 8 38 -7
24 64 178 83 178 14 0 15 2 18 40 2 14 6 37 10 51 5 20 2 27 -12 32 -10 2 -26
8 -35 12 -13 5 -20 0 -28 -19z"/>
<path d="M2724 6776 c-44 -20 -77 -64 -69 -95 14 -56 90 -186 116 -198 36 -17
91 0 123 38 29 34 33 66 12 94 -12 16 -17 17 -45 6 -33 -14 -37 -22 -21 -51 7
-13 6 -21 -5 -30 -12 -10 -18 -6 -35 22 -11 18 -20 38 -20 44 0 5 20 20 45 32
25 12 45 29 45 37 0 27 -50 95 -76 105 -31 12 -32 12 -70 -4z m47 -77 c9 -17
8 -23 -2 -30 -17 -10 -39 8 -39 32 0 26 27 24 41 -2z"/>
<path d="M2506 6737 l-28 -23 56 -112 c31 -62 54 -112 52 -112 -2 0 -39 43
-81 95 -43 52 -80 95 -82 95 -12 0 -63 -35 -63 -44 0 -5 25 -56 55 -114 31
-57 54 -106 52 -108 -2 -2 -39 39 -82 91 -44 52 -82 95 -85 95 -3 0 -18 -11
-34 -24 l-30 -23 20 -26 c12 -14 68 -76 127 -137 112 -118 116 -120 166 -81
l24 18 -52 101 c-28 56 -49 102 -47 102 3 0 37 -38 77 -85 l71 -85 30 18 c16
9 34 22 39 28 10 12 -130 345 -147 351 -5 2 -22 -7 -38 -20z"/>
<path d="M5708 6702 c-19 -22 -171 -251 -186 -278 -11 -20 -5 -26 69 -75 l81
-53 19 25 c10 13 19 26 19 30 0 3 -20 18 -45 33 -25 16 -45 31 -45 33 0 2 11
20 23 39 l24 34 38 -26 39 -26 18 24 c24 31 23 33 -14 59 -18 12 -35 24 -36
25 -6 4 32 64 41 64 4 0 25 -11 45 -25 20 -14 39 -25 42 -25 3 0 13 13 23 29
l17 28 -79 51 c-73 46 -81 49 -93 34z"/>
<path d="M5337 6551 c-23 -39 -22 -46 8 -59 36 -17 38 -16 58 17 22 38 22 38
-13 56 -37 19 -33 20 -53 -14z"/>
<path d="M5861 6473 c-5 -21 -13 -53 -18 -71 -7 -27 -20 -39 -77 -70 -37 -20
-68 -41 -68 -47 0 -5 11 -19 26 -29 25 -19 25 -19 65 7 l40 27 -19 -45 -19
-44 29 -21 c15 -11 32 -20 37 -20 5 0 17 34 28 75 l19 76 68 37 c37 20 68 40
68 43 0 3 -14 15 -30 28 l-31 22 -29 -21 c-32 -23 -37 -16 -18 25 11 24 9 29
-12 46 -36 27 -48 24 -59 -18z"/>
<path d="M5956 6235 c-64 -68 -116 -127 -116 -132 0 -5 11 -20 25 -33 l25 -24
30 29 30 29 0 -25 c0 -33 18 -49 55 -49 25 0 44 15 113 86 64 66 82 92 82 114
0 31 -30 60 -62 60 -11 0 -15 5 -12 14 3 8 -7 23 -24 35 l-29 20 -117 -124z
m159 15 c8 -13 -102 -140 -121 -140 -32 0 -21 25 37 85 64 66 73 73 84 55z"/>
<path d="M2014 6260 c-26 -10 -62 -55 -70 -86 -3 -12 1 -35 9 -50 21 -41 129
-142 161 -150 34 -8 84 21 109 64 22 37 18 67 -13 102 l-20 23 -25 -23 c-29
-28 -31 -37 -8 -62 13 -14 14 -21 5 -30 -10 -10 -20 -5 -44 20 l-32 32 37 38
c20 21 37 42 37 48 0 13 -48 58 -77 73 -25 13 -40 13 -69 1z m40 -79 c14 -15
14 -20 3 -30 -11 -8 -18 -7 -31 8 -10 11 -15 25 -11 30 9 16 20 14 39 -8z"/>
<path d="M2263 6191 c-29 -24 -29 -32 2 -61 20 -19 30 -22 42 -14 35 22 39 42
13 69 -28 30 -29 30 -57 6z"/>
<path d="M6152 6098 c-77 -69 -97 -101 -87 -141 10 -37 69 -87 103 -87 31 0
72 25 72 44 0 7 -10 22 -23 34 -21 20 -25 20 -43 7 -48 -36 -60 -4 -14 40 l30
29 36 -42 c19 -23 40 -42 45 -42 5 0 27 18 49 40 54 54 54 88 1 141 -57 57
-83 54 -169 -23z m138 -21 c0 -8 -8 -21 -18 -30 -14 -13 -21 -14 -30 -5 -9 9
-8 16 5 30 19 21 43 24 43 5z"/>
<path d="M1860 6100 l-21 -30 63 -67 c67 -70 65 -71 -24 -11 -31 21 -61 38
-66 38 -11 0 -57 -48 -51 -54 13 -12 247 -146 255 -146 6 0 23 13 38 29 19 20
25 34 20 44 -17 28 -179 226 -186 227 -4 0 -16 -14 -28 -30z"/>
<path d="M1648 5965 c-23 -31 -23 -42 1 -55 16 -8 23 -5 41 20 18 25 19 34 10
45 -17 21 -32 18 -52 -10z"/>
<path d="M6378 5966 c-45 -24 -147 -105 -159 -128 -29 -55 42 -156 102 -144
30 6 79 34 79 45 0 3 -10 19 -23 34 l-22 29 -27 -21 c-31 -25 -44 -26 -51 -6
-7 16 148 139 164 130 16 -10 10 -34 -11 -45 -25 -13 -25 -18 4 -54 l24 -29
26 26 c47 47 26 131 -40 162 -39 18 -33 18 -66 1z"/>
<path d="M1708 5915 c-10 -13 -18 -26 -18 -29 0 -9 226 -176 237 -176 10 0 43
42 43 54 0 8 -226 176 -236 176 -5 0 -17 -11 -26 -25z"/>
<path d="M1630 5811 c-14 -21 -17 -32 -9 -37 7 -4 0 -12 -19 -20 -36 -15 -50
-51 -32 -84 15 -28 156 -120 184 -120 36 0 59 24 58 59 -1 31 0 32 21 18 21
-14 31 -48 13 -46 -9 1 -46 -50 -46 -63 0 -11 38 -10 60 2 31 16 62 76 58 112
-3 30 -15 41 -118 111 -157 107 -145 102 -170 68z m98 -116 c48 -33 68 -65 40
-65 -19 0 -128 74 -128 88 0 22 34 13 88 -23z"/>
<path d="M6594 5815 c-12 -8 -24 -12 -27 -9 -11 11 -47 -8 -47 -24 0 -10 -36
-40 -89 -75 -49 -32 -92 -65 -95 -73 -6 -16 17 -68 35 -79 12 -8 49 22 49 39
0 13 136 102 151 98 16 -4 49 17 49 32 0 8 11 21 25 30 25 17 25 17 8 46 -20
34 -30 36 -59 15z"/>
<path d="M1520 5630 c0 -12 5 -31 11 -43 9 -18 9 -20 -2 -9 -21 19 -37 14 -54
-18 -14 -27 -14 -30 2 -40 10 -6 68 -39 128 -75 l110 -63 22 26 c13 15 22 31
20 36 -1 4 -39 29 -82 55 -73 44 -80 50 -79 78 1 26 -4 34 -37 52 l-39 22 0
-21z"/>
<path d="M6598 5526 c-53 -28 -106 -60 -117 -70 -34 -31 -25 -81 16 -97 13 -5
21 -14 18 -20 -7 -10 13 -69 23 -69 6 0 254 129 261 135 8 8 -22 65 -34 65 -7
0 -55 -23 -107 -50 -79 -42 -97 -48 -107 -36 -15 17 -9 21 106 80 l92 47 -16
35 c-9 19 -21 33 -27 33 -6 -1 -54 -25 -108 -53z"/>
<path d="M1406 5430 c-30 -37 -42 -90 -26 -120 13 -24 181 -110 215 -110 29 0
71 43 85 86 19 56 -2 82 -100 131 -104 52 -139 55 -174 13z m133 -80 c86 -43
102 -57 76 -67 -16 -6 -145 48 -174 73 -14 12 -8 34 10 34 5 0 45 -18 88 -40z"/>
<path d="M6726 5317 c-13 -13 -31 -49 -40 -81 -17 -57 -38 -78 -58 -58 -9 9
-7 17 7 32 15 17 16 24 7 45 -15 32 -35 32 -62 -2 -48 -61 20 -168 95 -149 39
10 62 39 80 100 18 61 39 86 57 68 9 -9 7 -16 -6 -30 -14 -16 -15 -24 -5 -46
15 -32 35 -30 62 6 18 24 19 32 8 67 -6 22 -21 47 -34 56 -33 23 -84 19 -111
-8z"/>
<path d="M1250 5264 c-10 -30 -9 -38 6 -55 9 -10 23 -19 31 -19 7 0 13 -6 13
-14 0 -16 34 -31 49 -22 5 3 37 -6 72 -20 35 -15 86 -35 112 -45 l48 -19 14
32 c7 18 11 36 9 39 -2 3 -51 26 -109 49 -59 25 -105 49 -105 57 0 13 -17 18
-57 14 -14 -1 -23 4 -23 13 0 13 -20 26 -40 26 -5 0 -14 -16 -20 -36z"/>
<path d="M6658 5068 c-31 -11 -36 -34 -15 -62 12 -17 18 -17 50 -7 21 7 37 14
37 15 0 2 -5 17 -11 35 -12 33 -18 35 -61 19z"/>
<path d="M1170 5004 c-15 -39 -12 -52 13 -60 12 -3 30 -15 41 -26 12 -14 26
-18 42 -14 14 4 62 -5 111 -19 119 -34 131 -33 149 11 18 43 7 58 -36 50 -29
-5 -190 42 -190 56 0 14 -43 27 -56 17 -7 -6 -22 -5 -38 1 -24 9 -28 7 -36
-16z"/>
<path d="M1203 4846 c-24 -21 -27 -31 -28 -81 0 -50 3 -60 25 -76 28 -20 182
-57 218 -51 31 5 62 58 62 108 0 57 -26 78 -133 103 -110 26 -110 26 -144 -3z
m130 -75 c84 -20 108 -34 91 -51 -7 -7 -39 -4 -100 11 -93 22 -111 30 -100 48
9 14 17 14 109 -8z"/>
<path d="M1146 4614 c-18 -17 -21 -51 -7 -73 6 -9 4 -19 -5 -28 -8 -8 -14 -27
-14 -42 l0 -29 145 -22 c80 -12 147 -21 149 -19 2 2 6 20 8 39 l3 35 -110 18
c-112 19 -137 29 -119 47 7 7 43 6 114 -5 57 -9 110 -13 117 -11 7 3 13 20 13
39 l0 33 -113 17 c-139 21 -161 21 -181 1z"/>
<path d="M3102 4310 c-126 -19 -267 -125 -325 -243 -24 -50 -53 -155 -44 -163
2 -2 27 17 57 41 221 181 559 181 780 0 30 -24 55 -43 57 -41 8 8 -22 116 -45
161 -37 74 -70 114 -135 161 -99 73 -220 103 -345 84z"/>
<path d="M4940 4309 c-127 -21 -259 -118 -318 -235 -26 -52 -58 -162 -49 -170
2 -2 27 17 57 41 109 90 240 135 390 135 149 0 282 -46 391 -136 29 -24 55
-42 57 -39 9 9 -20 110 -49 167 -62 122 -189 216 -325 238 -67 11 -78 11 -154
-1z"/>
<path d="M1145 4261 c-28 -12 -41 -30 -50 -68 -8 -40 10 -100 34 -113 10 -5
65 -10 124 -12 91 -2 108 0 126 16 40 36 39 134 -2 161 -27 17 -202 29 -232
16z m190 -81 c22 -8 25 -13 15 -24 -9 -12 -31 -13 -103 -9 -51 3 -94 7 -96 9
-2 2 -1 10 2 19 5 12 23 15 81 15 41 0 87 -5 101 -10z"/>
<path d="M1185 4026 l-160 -11 -3 -37 -3 -38 51 0 c47 0 50 -1 40 -19 -15 -29
-12 -67 5 -81 19 -16 189 -15 248 1 55 15 67 57 29 102 -10 11 -11 17 -4 17 7
0 12 16 12 40 0 37 -2 40 -27 38 -16 0 -100 -6 -188 -12z m163 -93 c-3 -15
-18 -19 -92 -23 -69 -4 -90 -2 -94 9 -8 22 20 31 106 31 74 0 83 -2 80 -17z"/>
<path d="M2340 3771 c0 -4 12 -55 26 -112 159 -630 664 -1137 1289 -1292 181
-45 240 -52 455 -51 183 0 219 3 335 28 615 129 1095 531 1326 1113 26 67 89
287 89 314 0 5 -678 9 -1760 9 -968 0 -1760 -4 -1760 -9z m2964 -418 c-219
-345 -556 -573 -954 -648 -129 -25 -360 -25 -495 -1 -397 72 -738 302 -959
649 l-37 57 1241 0 1241 0 -37 -57z"/>
<path d="M1326 3681 c-3 -5 -3 -23 0 -40 6 -27 10 -31 41 -31 50 0 42 -31 -11
-42 -21 -5 -41 -7 -42 -5 -2 2 -8 25 -13 51 -5 26 -13 51 -17 56 -15 13 -107
-16 -126 -40 -36 -45 -16 -133 35 -155 23 -10 47 -9 123 5 99 18 128 34 138
76 9 36 -11 101 -37 119 -23 16 -82 20 -91 6z m-76 -95 c0 -2 3 -11 6 -19 3
-10 -4 -17 -22 -21 -34 -9 -52 13 -27 32 16 11 43 17 43 8z"/>
<path d="M1256 3409 c-82 -11 -151 -21 -154 -23 -8 -9 20 -76 32 -76 7 0 61 9
121 20 60 11 114 20 119 20 6 -1 -43 -23 -108 -51 -66 -27 -121 -51 -123 -52
-7 -7 22 -77 31 -77 6 0 64 11 129 24 65 12 114 20 110 16 -4 -4 -53 -27 -108
-51 -55 -23 -104 -46 -109 -50 -11 -10 2 -79 15 -79 14 0 339 162 339 169 0 3
-5 23 -11 44 -12 43 -15 44 -139 22 -47 -8 -89 -15 -95 -15 -5 1 33 19 85 41
123 53 121 52 106 97 -12 34 -16 37 -52 39 -21 1 -106 -7 -188 -18z"/>
<path d="M6622 3137 c-7 -18 -12 -38 -12 -45 0 -6 44 -36 98 -66 53 -31 93
-56 87 -56 -5 0 -55 14 -109 30 -55 17 -101 30 -102 30 -8 0 -34 -61 -34 -77
0 -10 15 -27 33 -38 17 -10 86 -54 153 -97 66 -43 124 -78 127 -78 7 0 39 71
35 76 -2 1 -54 30 -115 64 -110 61 -136 79 -90 64 12 -4 68 -22 125 -40 l102
-32 16 30 c8 16 13 36 10 43 -2 7 -52 38 -111 70 -59 31 -105 58 -103 60 2 2
55 -12 118 -31 63 -18 118 -34 123 -34 9 0 42 68 36 75 -7 6 -339 85 -359 85
-9 0 -21 -15 -28 -33z"/>
<path d="M1575 2998 c-11 -6 -21 -12 -23 -14 -4 -2 27 -64 32 -64 20 0 66 25
66 37 0 45 -34 64 -75 41z"/>
<path d="M1554 2861 c-126 -69 -134 -76 -134 -112 0 -22 8 -34 31 -48 18 -11
26 -22 20 -25 -12 -8 13 -66 29 -66 7 0 248 126 258 135 6 5 -28 65 -37 65 -4
0 -52 -23 -105 -51 -67 -35 -101 -48 -108 -41 -17 17 -1 30 92 77 49 24 91 49
95 54 7 12 -21 72 -33 70 -4 -1 -53 -26 -108 -58z"/>
<path d="M6481 2824 c-54 -45 -55 -126 -2 -157 l30 -18 17 33 c16 31 16 32 -5
49 -44 36 -16 60 34 29 19 -12 35 -23 35 -25 0 -2 -11 -23 -25 -46 -14 -24
-25 -47 -25 -52 0 -4 24 -19 54 -34 48 -23 58 -25 84 -14 31 13 72 75 72 109
0 32 -37 67 -117 112 -84 47 -110 49 -152 14z m202 -150 c-3 -15 -33 -17 -49
-3 -11 9 -12 15 -3 26 10 12 15 11 33 0 12 -8 20 -18 19 -23z"/>
<path d="M1730 2693 c-29 -12 -155 -96 -167 -112 -44 -58 29 -175 99 -158 41
11 178 106 187 130 26 68 -57 165 -119 140z m60 -87 c0 -18 -156 -120 -169
-111 -23 14 -7 32 71 82 81 50 98 55 98 29z"/>
<path d="M6305 2545 c-14 -13 -25 -33 -25 -45 0 -11 -6 -20 -13 -20 -8 0 -20
-12 -28 -26 -13 -25 -12 -28 21 -56 75 -62 169 -120 196 -120 40 0 94 61 94
106 0 35 -21 66 -44 66 -21 0 -42 -48 -28 -62 18 -18 14 -38 -7 -38 -33 0 -43
23 -31 75 13 57 0 89 -49 122 -43 29 -56 29 -86 -2z m56 -76 c19 -13 29 -29
29 -45 l0 -25 -40 28 c-22 15 -40 36 -40 46 0 23 15 22 51 -4z"/>
<path d="M1788 2444 c-65 -47 -118 -90 -118 -97 0 -7 9 -23 19 -36 l19 -25
121 89 c66 49 121 91 121 94 -1 3 -11 18 -23 33 l-22 27 -117 -85z"/>
<path d="M1863 2348 c-61 -51 -112 -100 -112 -109 -1 -20 34 -53 48 -45 5 4
11 -8 13 -26 2 -23 11 -37 30 -48 25 -13 30 -13 60 3 58 31 148 122 148 149 0
33 -20 59 -48 61 l-22 1 24 24 c25 26 46 23 46 -6 1 -23 37 -65 50 -57 22 13
10 62 -26 103 -56 66 -77 61 -211 -50z m112 -47 c6 -11 -7 -25 -71 -77 -36
-29 -47 -35 -57 -25 -9 10 0 23 42 62 54 48 74 58 86 40z"/>
<path d="M6176 2378 c-17 -24 -21 -48 -8 -48 4 -1 36 -27 72 -59 61 -55 64
-60 52 -85 -10 -23 -9 -28 22 -51 43 -33 50 -32 43 10 -5 32 -4 33 13 23 16
-10 22 -8 39 13 11 13 20 26 21 29 0 9 -218 190 -229 190 -5 0 -17 -10 -25
-22z"/>
<path d="M1615 2316 c-18 -13 -18 -14 1 -39 36 -50 82 -24 49 27 -20 30 -24
31 -50 12z"/>
<path d="M6034 2226 c-43 -43 -46 -91 -9 -126 l26 -24 26 27 c26 25 26 27 9
46 -23 25 -14 56 11 42 10 -5 27 -19 37 -30 20 -21 19 -22 -23 -65 l-42 -43
45 -41 c53 -48 88 -54 131 -20 36 28 58 80 46 110 -5 13 -40 53 -79 91 -61 58
-75 67 -107 67 -29 0 -45 -8 -71 -34z m192 -175 c-10 -16 -31 -14 -46 4 -10
12 -10 18 0 31 12 13 15 13 33 -4 11 -11 16 -25 13 -31z"/>
<path d="M2073 2220 c-39 -23 -40 -30 -10 -58 28 -26 35 -27 59 -5 14 13 21
14 30 5 10 -10 5 -20 -20 -44 l-32 -32 -38 37 c-21 20 -43 37 -49 37 -16 0
-72 -67 -79 -95 -14 -54 68 -134 123 -120 33 8 147 117 164 156 16 40 -7 91
-53 119 -41 25 -55 25 -95 0z m-32 -194 c-16 -16 -23 -18 -33 -8 -18 18 19 57
39 40 12 -10 11 -15 -6 -32z"/>
<path d="M2243 2084 c-17 -26 -16 -27 17 -54 40 -32 48 -15 -77 -162 -46 -53
-83 -99 -83 -103 0 -3 12 -17 28 -30 20 -18 30 -21 40 -12 33 27 233 268 230
277 -4 12 -120 110 -130 110 -4 0 -15 -12 -25 -26z"/>
<path d="M5841 2036 c-21 -22 -22 -26 -8 -52 14 -26 13 -29 -10 -47 -24 -19
-24 -19 -49 4 l-24 23 -27 -20 c-15 -11 -28 -25 -30 -31 -4 -11 260 -246 280
-250 7 -2 30 13 51 31 l39 34 -89 166 c-49 91 -94 166 -100 166 -6 0 -21 -11
-33 -24z m129 -277 c7 -13 -19 7 -56 44 -66 65 -68 69 -50 82 18 14 22 11 57
-44 20 -32 43 -70 49 -82z"/>
<path d="M5640 1883 c-14 -9 -27 -18 -29 -19 -2 -2 24 -46 58 -97 33 -51 61
-99 61 -106 0 -33 -40 2 -93 82 -32 48 -63 87 -70 87 -7 0 -23 -9 -36 -19
l-23 -18 73 -111 c41 -62 82 -115 92 -118 32 -10 64 5 77 36 9 21 16 27 24 21
8 -7 21 -3 39 12 l27 22 -80 120 c-44 66 -83 121 -88 123 -4 1 -19 -5 -32 -15z"/>
<path d="M2520 1882 c-21 -6 -60 -43 -60 -57 0 -6 14 -19 31 -29 30 -18 31
-18 45 3 17 23 44 28 44 9 0 -7 -9 -28 -20 -46 -23 -37 -18 -38 -95 15 -27 18
-29 18 -59 -27 -38 -57 -35 -100 9 -139 39 -34 86 -41 120 -17 11 7 41 47 68
89 61 96 62 133 5 175 -22 17 -70 30 -88 24z m-25 -192 c7 -12 -12 -50 -26
-50 -16 0 -22 29 -9 45 14 17 26 19 35 5z"/>
<path d="M2690 1682 c-41 -70 -48 -77 -76 -76 -25 1 -34 -5 -52 -37 -20 -35
-21 -40 -7 -45 9 -4 21 -2 28 5 17 17 29 13 22 -8 -4 -14 1 -25 19 -36 14 -9
29 -14 34 -11 6 3 36 52 68 108 31 57 64 113 71 125 13 20 12 23 -16 37 -16 9
-34 16 -38 16 -4 0 -28 -35 -53 -78z"/>
<path d="M5403 1741 c-74 -34 -79 -69 -27 -174 41 -83 60 -106 92 -118 35 -14
106 21 127 62 17 32 17 32 -30 126 -34 66 -56 98 -76 108 -35 19 -35 19 -86
-4z m86 -130 c44 -79 50 -101 27 -101 -14 0 -29 21 -82 118 -25 45 -27 54 -14
62 19 12 21 10 69 -79z"/>
<path d="M2786 1623 c-64 -129 -72 -158 -51 -189 33 -50 120 -69 155 -34 28
28 25 46 -11 60 -27 12 -33 11 -41 -3 -12 -23 -38 -22 -38 1 0 30 21 42 73 42
61 0 85 13 103 55 29 70 6 115 -58 115 -16 0 -28 4 -28 8 0 8 -43 32 -55 32
-3 0 -24 -39 -49 -87z m117 -30 c-10 -28 -55 -61 -61 -43 -4 11 27 73 42 82
19 12 29 -9 19 -39z"/>
<path d="M5248 1658 c-16 -5 -28 -13 -28 -17 0 -4 20 -52 44 -106 34 -76 42
-102 34 -113 -16 -19 -28 -3 -73 101 -21 48 -43 91 -47 93 -11 7 -68 -15 -68
-26 0 -18 104 -236 118 -247 25 -21 59 -15 81 13 11 14 24 23 29 20 12 -7 72
13 72 23 0 17 -116 265 -125 267 -6 1 -22 -2 -37 -8z"/>
<path d="M5002 1613 c-18 -8 -35 -26 -38 -38 -6 -25 34 -315 45 -328 6 -6 72
10 71 16 0 1 -11 45 -25 97 -13 52 -23 96 -21 97 1 2 22 -37 45 -87 24 -49 47
-90 51 -90 20 0 60 20 60 30 0 6 -32 65 -70 130 -60 102 -69 122 -59 138 14
22 6 52 -13 52 -7 0 -28 -8 -46 -17z"/>
<path d="M3136 1537 c-34 -34 -34 -65 0 -77 36 -14 39 -13 52 15 12 26 42 35
42 11 0 -21 -21 -76 -29 -76 -4 0 -30 7 -57 15 -27 8 -50 15 -51 15 -1 0 -10
-25 -19 -55 -14 -43 -15 -60 -6 -79 25 -56 110 -82 154 -47 37 29 93 196 79
234 -13 34 -50 57 -100 64 -33 5 -44 1 -65 -20z m47 -184 c8 -14 -12 -53 -28
-53 -15 0 -22 40 -8 53 9 9 31 9 36 0z"/>
<path d="M4837 1503 c-10 -3 -17 -10 -14 -16 2 -7 15 -56 28 -110 18 -75 20
-100 11 -109 -18 -18 -28 -2 -47 72 -36 142 -35 140 -56 140 -11 0 -28 -4 -38
-10 -18 -9 -17 -14 7 -115 19 -77 23 -108 15 -116 -20 -20 -30 -1 -53 93 -30
122 -33 128 -67 119 -38 -10 -39 -29 -8 -152 30 -118 46 -149 78 -149 29 0 67
27 67 47 0 15 2 14 18 0 26 -24 59 -21 87 8 14 13 25 20 25 15 0 -12 50 -13
67 -2 12 7 -3 86 -48 255 -10 38 -22 43 -72 30z"/>
<path d="M3395 1480 c-13 -21 -135 -324 -135 -335 0 -13 30 -25 62 -25 12 0
26 29 53 113 21 61 42 117 47 122 7 7 8 3 5 -10 -3 -11 -11 -69 -18 -128 -13
-119 -11 -127 42 -127 29 0 33 9 79 155 13 39 26 73 29 78 4 4 1 -49 -6 -119
-8 -70 -12 -129 -9 -131 2 -3 20 -8 40 -13 29 -6 36 -5 40 9 3 9 8 95 11 192
l7 176 -23 6 c-65 18 -74 12 -98 -64 -12 -39 -29 -85 -37 -102 -15 -32 -15
-31 -10 23 3 30 8 81 12 112 l6 56 -38 11 c-48 13 -51 13 -59 1z"/>
<path d="M4408 1414 c-37 -20 -42 -47 -29 -151 15 -112 31 -137 94 -141 53 -3
80 8 103 43 23 36 0 210 -33 243 -26 26 -92 30 -135 6z m90 -134 c13 -90 8
-121 -16 -106 -12 7 -36 171 -28 192 14 37 32 3 44 -86z"/>
<path d="M3830 1372 c0 -37 2 -40 31 -44 33 -5 37 -1 41 47 3 28 1 30 -34 33
l-38 3 0 -39z"/>
<path d="M3973 1400 c-28 -11 -43 -40 -43 -80 0 -25 12 -44 56 -90 52 -55 61
-80 30 -80 -8 0 -16 9 -19 20 -4 15 -14 20 -36 20 -27 0 -31 -3 -31 -28 0 -42
33 -67 87 -67 37 0 49 5 69 28 40 47 33 81 -31 145 -31 30 -54 59 -52 66 7 20
35 18 42 -3 5 -16 15 -21 42 -21 35 0 35 1 29 32 -4 18 -13 39 -20 46 -17 18
-93 25 -123 12z"/>
<path d="M4234 1393 c-13 -13 -19 -14 -22 -5 -2 6 -19 12 -38 12 l-34 0 0 -52
c0 -29 3 -97 7 -150 l6 -98 40 0 39 0 -7 115 c-6 101 -5 116 9 121 9 4 19 5
21 3 2 -3 7 -55 11 -118 7 -121 12 -129 60 -117 l26 7 -7 127 c-5 82 -12 135
-21 150 -18 27 -65 30 -90 5z"/>
</g>
</svg>
